<svg width="226" height="256" viewBox="0 0 226 256" fill="none" xmlns="http://www.w3.org/2000/svg">
<path d="M225.728 0L205.163 230.373L112.726 256L20.5426 230.409L0 0H225.728Z" fill="#00BEB0"/>
<path d="M187.558 215.704L205.132 18.8395H112.864V236.412L187.558 215.704Z" fill="#11FFEE"/>
<path d="M47.0935 104.295L49.6262 132.553H112.864V104.295H47.0935Z" fill="#202020"/>
<path d="M112.864 47.0985H112.766H42.0043L44.5732 75.3576H112.864V47.0985Z" fill="#202020"/>
<path d="M112.864 207.087V177.686L112.74 177.719L81.2681 169.221L79.2562 146.683H63.9633H50.8889L54.8479 191.053L112.734 207.123L112.864 207.087Z" fill="#202020"/>
<path d="M147.564 132.553L144.284 169.203L112.766 177.71V207.109L170.698 191.054L171.123 186.279L177.764 111.883L178.453 104.295L183.555 47.0985H112.766V75.3576H152.586L150.014 104.295H112.766V132.553H147.564Z" fill="#101010"/>
</svg>
