<svg width="256" height="125" viewBox="0 0 256 125" fill="none" xmlns="http://www.w3.org/2000/svg">
<path d="M60.4052 32.3452H108.689V35.4268H64.8312V58.6202H106.074V61.7018H64.8312V87.1659H109.192V90.2475H60.4052V32.3452ZM113.015 32.3452H118.145L140.878 57.8092L164.115 32.3452L195.721 0L143.796 60.4854L170.553 90.2475H165.222L140.878 63.1616L116.435 90.2475H111.204L138.162 60.4854L113.015 32.3452ZM172.464 35.4268V32.3452H227.488V35.4268H202.139V90.2475H197.713V35.4268H172.464Z"   fill="#11FFEE"/>
<path d="M0 32.3452H5.53254L81.823 124.016L50.2958 90.2475L4.62721 36.7244L4.42603 90.2475H0V32.3452Z"    fill="#11FFEE"/>
<path d="M227.042 86.2359C227.957 86.2359 228.624 85.6733 228.624 84.9462C228.624 84.2192 227.957 83.6565 227.042 83.6565C226.138 83.6565 225.459 84.2192 225.459 84.9462C225.459 85.6733 226.138 86.2359 227.042 86.2359ZM231.391 82.8429C231.391 84.9895 233.318 86.3917 236.128 86.3917C239.12 86.3917 240.929 84.9462 240.929 82.4361V73.5987H238.518V82.4274C238.518 83.821 237.646 84.5654 236.106 84.5654C234.728 84.5654 233.792 83.8729 233.759 82.8429H231.391ZM244.083 82.7304C244.255 84.9635 246.57 86.3917 250.015 86.3917C253.696 86.3917 256 84.8943 256 82.5053C256 80.6271 254.687 79.5884 251.5 78.9912L249.789 78.6536C247.765 78.2727 246.947 77.7621 246.947 76.8705C246.947 75.7453 248.217 75.0096 250.122 75.0096C251.931 75.0096 253.18 75.728 253.406 76.8792H255.753C255.613 74.7759 253.309 73.2958 250.155 73.2958C246.764 73.2958 244.503 74.7759 244.503 77.0004C244.503 78.8354 245.784 79.926 248.594 80.454L250.596 80.8435C252.652 81.233 253.556 81.8042 253.556 82.7564C253.556 83.8643 252.135 84.6692 250.198 84.6692C248.12 84.6692 246.678 83.9162 246.473 82.7304H244.083Z" fill="#11FFEE"  />
</svg>
