<svg width="277" height="292" viewBox="0 0 277 292" fill="none" xmlns="http://www.w3.org/2000/svg">
<path  d="M138.866 198.542C214.867 198.542 276.477 175.018 276.477 146C276.477 116.982 214.867 93.4576 138.866 93.4576C62.8656 93.4576 1.25507 116.982 1.25507 146C1.25507 175.018 62.8656 198.542 138.866 198.542Z" stroke-width="20" stroke="#11FFEE"/>
<path  d="M93.363 172.271C131.363 238.09 182.541 279.684 207.672 265.175C232.802 250.665 222.369 185.547 184.369 119.729C146.369 53.9105 95.1912 12.3162 70.0606 26.8254C44.9299 41.3346 55.3628 106.453 93.363 172.271Z" stroke-width="20" stroke="#11FFEE"/>
<path  d="M93.363 119.729C55.3628 185.547 44.9299 250.665 70.0605 265.175C95.1912 279.684 146.369 238.09 184.369 172.271C222.369 106.453 232.802 41.3345 207.672 26.8254C182.541 12.3162 131.363 53.9105 93.363 119.729Z" stroke-width="20" stroke="#11FFEE"/>
<path  d="M138.866 171.646C153.03 171.646 164.512 160.164 164.512 146C164.512 131.836 153.03 120.354 138.866 120.354C124.702 120.354 113.22 131.836 113.22 146C113.22 160.164 124.702 171.646 138.866 171.646Z" fill="#11FFEE"/>
</svg>
