<svg width="256" height="154" viewBox="0 0 256 154" fill="none" xmlns="http://www.w3.org/2000/svg">
<path d="M125.211 0.0504377C80.1743 1.48186 66.7887 33.6539 63.7211 51.0831C67.7181 44.6226 80.3137 30.4472 98.8584 30.4472C120.471 30.4472 136.924 54.5692 146.963 62.0986C159.16 71.2463 183.668 83.3246 215.843 73.5322C241.499 65.7239 253.397 38.4875 256 25.5668C243.59 42.4382 224.767 52.572 201.481 40.6256C185.447 32.399 173.455 -1.48305 125.211 0.0504377Z" fill="#11FFEE"/>
<path d="M61.4902 76.5994C16.4532 78.0308 3.06754 110.203 0 127.632C3.99709 121.172 16.5926 106.996 35.1373 106.996C56.7495 106.996 73.2026 131.118 83.2418 138.648C95.4386 147.795 119.947 159.874 152.122 150.081C177.778 142.273 189.676 115.036 192.279 102.116C179.869 118.987 161.046 129.121 137.76 117.175C121.725 108.948 109.734 75.0659 61.4902 76.5994Z" fill="#11FFEE"/>
</svg>
