<svg width="171" height="256" viewBox="0 0 171 256" fill="none" xmlns="http://www.w3.org/2000/svg">
<path d="M42.6667 256C66.2187 256 85.3333 236.885 85.3333 213.333V170.667H42.6667C19.1147 170.667 0 189.781 0 213.333C0 236.885 19.1147 256 42.6667 256Z" fill="#0FC7BA"/>
<path d="M0 128C0 104.448 19.1147 85.3334 42.6667 85.3334H85.3333V170.667H42.6667C19.1147 170.667 0 151.552 0 128Z" fill="#50FFF3"/>
<path d="M0 42.6667C0 19.1147 19.1147 0 42.6667 0H85.3333V85.3333H42.6667C19.1147 85.3333 0 66.2187 0 42.6667Z" fill="#23E4D6"/>
<path d="M85.3333 0H128C151.552 0 170.667 19.1147 170.667 42.6667C170.667 66.2187 151.552 85.3333 128 85.3333H85.3333V0Z" fill="#00B5A8"/>
<path d="M170.667 128C170.667 151.552 151.552 170.667 128 170.667C104.448 170.667 85.3333 151.552 85.3333 128C85.3333 104.448 104.448 85.3334 128 85.3334C151.552 85.3334 170.667 104.448 170.667 128Z" fill="#2DFFF0"/>
</svg>
