<svg width="187" height="256" viewBox="0 0 187 256" fill="none" xmlns="http://www.w3.org/2000/svg">
<path d="M0.101562 206.551L31.6114 4.92374C31.9966 2.45096 33.9197 0.50164 36.387 0.0824776C38.8543 -0.336684 41.313 0.869237 42.4928 3.07619L75.0794 63.8553L88.0684 39.1245C89.0743 37.2123 91.0574 36.015 93.2183 36.015C95.3791 36.015 97.362 37.2123 98.3681 39.1245L186.308 206.551L0.101562 206.551Z" fill="#11FFEE"/>
<path d="M108.96 128.01L75.0649 63.8265L0.102051 206.552L108.96 128.01Z" fill="#00BEB0"/>
<path d="M186.309 206.552L162.175 57.2074C161.811 55.0627 160.28 53.3009 158.207 52.6368C156.134 51.9727 153.866 52.5255 152.327 54.0631L0.102051 206.549L84.3318 253.785C89.6211 256.738 96.0628 256.738 101.352 253.785L186.309 206.549V206.552Z" fill="#009187"/>
<path d="M162.175 57.2073C161.81 55.0626 160.28 53.3008 158.207 52.6367C156.134 51.9726 153.866 52.5254 152.326 54.063L122.113 84.3528L98.355 39.1235C97.3491 37.2113 95.366 36.014 93.2052 36.014C91.0443 36.014 89.0614 37.2113 88.0553 39.1235L75.0664 63.8543L42.4782 3.07617C41.2965 0.868634 38.8348 -0.335334 36.3646 0.0869532C33.8943 0.50924 31.9776 2.46344 31.5967 4.93818L0.101568 206.551H0L0.101568 206.668L0.930711 207.075L152.282 55.5488C153.821 54.0028 156.095 53.4471 158.173 54.1093C160.251 54.7714 161.785 56.54 162.146 58.6909L186.076 206.697L186.309 206.551L162.175 57.2073ZM0.37795 206.275L31.6114 6.36403C31.9919 3.8893 33.9131 1.93509 36.3812 1.51281C38.8493 1.09052 41.3111 2.2941 42.4948 4.50202L75.0794 65.2811L88.0684 40.5504C89.0743 38.6381 91.0574 37.4408 93.2183 37.4408C95.3791 37.4408 97.362 38.6381 98.3681 40.5504L121.644 84.8183L0.37795 206.275Z" fill="white" fill-opacity="0.2"/>
<path opacity="0.2" d="M101.352 252.362C96.0625 255.315 89.6208 255.315 84.3315 252.362L0.305283 205.257L0.101562 206.552L84.3313 253.773C89.6206 256.727 96.0623 256.727 101.352 253.773L186.309 206.552L186.091 205.214L101.352 252.362Z" fill="#00BEB0"/>
<path d="M161.934 57.2381C161.57 55.0941 160.045 53.3317 157.979 52.6715C155.914 52.0113 153.653 52.5602 152.119 54.0973L122.01 84.3719L98.3371 39.1636C97.3346 37.2521 95.3585 36.0552 93.2054 36.0552C91.0524 36.0552 89.0763 37.2521 88.0737 39.1636L75.1283 63.8836L42.656 3.13067C41.4782 0.924109 39.0253 -0.279663 36.5658 0.142819C34.1063 0.565302 32.1918 2.51794 31.8126 4.99209L0.427246 206.517L84.3626 253.717C89.6334 256.669 96.0527 256.669 101.324 253.717L185.984 206.517L161.934 57.2377V57.2381Z" fill="url(#paint0_linear_307_97)"/>
<defs>
<linearGradient id="paint0_linear_307_97" x1="-647.165" y1="4355" x2="22508.6" y2="16569.4" gradientUnits="userSpaceOnUse">
<stop stop-color="white" stop-opacity="0.1"/>
<stop offset="0.14" stop-color="white" stop-opacity="0.08"/>
<stop offset="0.61" stop-color="white" stop-opacity="0.02"/>
<stop offset="1" stop-color="white" stop-opacity="0"/>
</linearGradient>
</defs>
</svg>
