<svg width="293" height="292" viewBox="0 0 293 292" fill="none" xmlns="http://www.w3.org/2000/svg">
<path d="M146.5 199C221.887 199 283 175.271 283 146C283 116.729 221.887 93 146.5 93C71.1131 93 10 116.729 10 146C10 175.271 71.1131 199 146.5 199Z" stroke="#11FFEE" stroke-width="20"/>
<path d="M100.363 172.271C138.363 238.09 189.541 279.684 214.672 265.175C239.802 250.665 229.369 185.547 191.369 119.729C153.369 53.9105 102.191 12.3162 77.0606 26.8254C51.9299 41.3346 62.3628 106.453 100.363 172.271Z" stroke="#11FFEE" stroke-width="20"/>
<path d="M100.363 119.729C62.3628 185.547 51.9299 250.665 77.0605 265.175C102.191 279.684 153.369 238.09 191.369 172.271C229.369 106.453 239.802 41.3345 214.672 26.8254C189.541 12.3162 138.363 53.9105 100.363 119.729Z" stroke="#11FFEE" stroke-width="20"/>
<path d="M145.866 171.646C160.03 171.646 171.512 160.164 171.512 146C171.512 131.836 160.03 120.354 145.866 120.354C131.702 120.354 120.22 131.836 120.22 146C120.22 160.164 131.702 171.646 145.866 171.646Z" fill="#11FFEE"/>
</svg>
